<?xml version="1.0" standalone="no"?>
<!DOCTYPE svg PUBLIC "-//W3C//DTD SVG 20010904//EN"
 "http://www.w3.org/TR/2001/REC-SVG-20010904/DTD/svg10.dtd">
<svg version="1.0" xmlns="http://www.w3.org/2000/svg"
 width="16.000000pt" height="16.000000pt" viewBox="0 0 16.000000 16.000000"
 preserveAspectRatio="xMidYMid meet">
<metadata>
Created by potrace 1.11, written by Peter Selinger 2001-2013
</metadata>
<g transform="translate(0.000000,16.000000) scale(0.002286,-0.002286)"
fill="#000000" stroke="none">
<path d="M0 3500 l0 -3500 3500 0 3500 0 0 3500 0 3500 -3500 0 -3500 0 0
-3500z m3854 495 c70 -18 152 -53 166 -70 9 -10 -21 -58 -96 -154 -2 -2 -25 7
-51 20 -40 20 -63 24 -138 24 -78 0 -97 -4 -140 -27 -116 -61 -179 -162 -179
-288 0 -126 63 -227 179 -288 43 -23 62 -27 140 -27 77 0 96 3 132 24 24 14
44 23 46 20 2 -2 27 -35 56 -74 60 -80 61 -76 -44 -126 -193 -91 -432 -42
-577 119 -154 172 -180 429 -63 628 53 90 186 186 305 219 63 18 195 18 264 0z
m2359 -4 c59 -19 136 -66 144 -88 3 -6 -10 -33 -29 -59 -18 -27 -36 -52 -39
-57 -3 -4 -29 6 -58 24 -91 57 -210 48 -240 -17 -37 -81 5 -130 166 -192 70
-27 125 -55 152 -79 163 -139 98 -433 -112 -511 -105 -40 -252 -25 -354 35
-39 22 -123 106 -123 122 0 4 27 33 60 66 l60 59 37 -36 c77 -75 184 -98 263
-58 48 25 60 45 60 105 0 71 -35 97 -221 169 -157 60 -209 120 -209 240 0 127
68 234 176 276 66 26 191 27 267 1z m-5408 -113 c89 -283 158 -494 164 -500 4
-5 43 124 87 285 l80 292 65 0 64 0 76 -295 c64 -246 78 -291 86 -270 6 14 45
148 89 298 l78 272 93 0 c51 0 93 -3 93 -7 0 -4 -57 -183 -126 -397 -69 -215
-135 -419 -145 -453 l-20 -63 -84 0 -83 0 -62 258 c-35 141 -66 263 -70 271
-4 8 -31 -81 -64 -220 -32 -129 -62 -251 -67 -271 l-10 -38 -82 0 -83 0 -144
448 c-79 246 -145 453 -148 460 -3 9 19 12 91 12 l96 0 26 -82z m1895 -378 l0
-100 -295 0 -295 0 0 100 0 100 295 0 295 0 0 -100z m2440 0 l0 -100 -295 0
-295 0 0 100 0 100 295 0 295 0 0 -100z"/>
</g>
</svg>
