<?xml version="1.0" standalone="no"?>
<!DOCTYPE svg PUBLIC "-//W3C//DTD SVG 20010904//EN"
 "http://www.w3.org/TR/2001/REC-SVG-20010904/DTD/svg10.dtd">
<svg version="1.0" xmlns="http://www.w3.org/2000/svg"
 width="16.000000pt" height="16.000000pt" viewBox="0 0 16.000000 16.000000"
 preserveAspectRatio="xMidYMid meet">
<metadata>
Created by potrace 1.11, written by Peter Selinger 2001-2013
</metadata>
<g transform="translate(0.000000,16.000000) scale(0.000943,-0.000943)"
fill="#000000" stroke="none">
<path d="M14738 11735 c-2 -2 -28 -6 -58 -9 -30 -3 -77 -9 -105 -12 -211 -23
-548 -130 -715 -228 -25 -14 -57 -31 -72 -38 -16 -7 -28 -15 -28 -19 0 -4 -13
-12 -30 -19 -16 -7 -30 -16 -30 -21 0 -5 -6 -9 -14 -9 -8 0 -16 -3 -18 -8 -1
-4 -28 -27 -58 -50 -73 -58 -142 -124 -213 -202 -72 -81 -66 -73 -128 -166
-29 -44 -57 -82 -63 -86 -6 -4 -7 -8 -3 -8 5 0 0 -15 -11 -32 -47 -75 -142
-299 -158 -370 -9 -42 -13 -56 -27 -113 -9 -33 -18 -80 -22 -105 -3 -25 -8
-56 -10 -70 -5 -25 -14 -137 -19 -235 -1 -27 2 -60 6 -73 6 -16 5 -21 -4 -16
-6 4 -8 3 -5 -3 4 -6 9 -46 12 -90 24 -359 166 -682 403 -921 117 -117 145
-141 248 -211 43 -30 81 -57 84 -61 28 -32 362 -198 525 -260 11 -4 31 -12 45
-18 14 -6 39 -15 55 -20 17 -6 89 -31 160 -57 72 -26 150 -53 175 -61 25 -8
52 -18 60 -21 8 -3 22 -7 30 -9 8 -2 23 -7 35 -13 11 -5 63 -26 115 -47 52
-20 119 -47 148 -60 29 -13 54 -24 56 -24 10 0 192 -103 194 -111 2 -5 10 -9
17 -9 8 0 20 -6 27 -12 7 -7 36 -31 63 -53 72 -57 151 -141 185 -198 43 -70
97 -197 84 -197 -2 0 -1 -8 5 -17 20 -39 29 -220 15 -310 -11 -74 -13 -85 -30
-136 -80 -242 -307 -418 -609 -471 -16 -3 -41 -8 -55 -11 -108 -24 -412 -23
-474 1 -10 4 -25 8 -34 9 -105 11 -362 120 -512 217 -170 110 -342 267 -472
430 -42 54 -65 75 -73 68 -6 -5 -54 -51 -107 -102 -85 -83 -252 -244 -584
-564 -57 -55 -104 -104 -104 -107 0 -15 144 -210 185 -251 14 -15 24 -26 21
-26 -8 0 233 -241 291 -291 78 -67 97 -82 128 -104 15 -11 39 -29 54 -41 140
-110 505 -299 656 -339 34 -10 35 -10 55 -18 29 -11 133 -38 161 -42 16 -2 32
-6 37 -9 5 -3 24 -8 43 -11 19 -3 45 -8 59 -10 14 -3 43 -7 65 -10 22 -4 51
-8 65 -11 45 -10 554 -13 615 -4 33 5 84 11 114 15 64 8 61 7 187 35 103 22
188 46 214 59 9 5 31 12 50 16 19 4 41 11 50 16 8 4 53 25 100 44 47 20 114
53 150 73 36 19 75 40 87 46 13 6 23 14 23 19 0 4 7 7 15 7 8 0 15 5 15 10 0
6 5 10 10 10 13 0 102 65 185 135 92 77 220 210 270 280 11 15 29 39 40 54 91
117 245 425 270 541 2 8 8 27 14 43 6 15 8 27 5 27 -2 0 0 8 5 19 6 10 13 33
16 52 3 19 10 50 15 69 5 19 11 53 14 75 3 22 8 51 11 65 17 75 24 387 12 510
-24 231 -76 422 -168 611 -44 89 -148 254 -194 307 -116 134 -370 362 -403
362 -6 0 -12 4 -14 9 -11 30 -511 291 -556 291 -7 0 -12 5 -12 10 0 6 -3 9 -7
8 -5 -1 -35 8 -68 21 -99 39 -187 71 -235 87 -25 8 -54 19 -65 24 -11 5 -47
18 -80 30 -33 11 -67 23 -75 27 -8 3 -19 7 -25 8 -30 8 -164 59 -197 76 -10 5
-22 9 -28 9 -12 0 -127 52 -195 87 -79 42 -88 47 -103 61 -7 6 -17 12 -21 12
-5 0 -19 10 -33 23 -13 12 -40 36 -59 52 -126 111 -184 239 -184 410 0 167 23
242 110 375 45 68 180 190 210 190 4 0 13 7 22 15 8 8 19 13 24 10 5 -4 9 -1
9 4 0 6 9 11 19 11 11 0 22 4 25 9 7 11 130 46 199 56 15 2 45 7 66 10 82 12
215 8 326 -10 22 -4 145 -33 160 -39 90 -31 170 -65 255 -109 141 -73 313
-192 410 -284 l35 -33 25 29 c14 15 52 65 85 110 33 46 65 88 70 94 6 7 21 26
33 42 12 17 29 39 38 50 8 11 65 85 125 165 60 80 116 153 124 163 8 9 11 17
7 17 -4 0 -1 4 6 9 7 4 37 41 66 81 l54 73 -57 53 c-157 148 -266 230 -481
363 -54 33 -263 131 -315 147 -5 2 -57 19 -114 39 -91 31 -168 52 -261 70 -14
3 -36 8 -50 12 -14 3 -28 6 -32 5 -3 -1 -46 5 -95 12 -48 8 -95 15 -103 16
-30 3 -479 8 -482 5z"/>
<path d="M10297 11714 c-1 -1 -42 -5 -92 -8 -147 -10 -257 -24 -375 -48 -30
-6 -62 -13 -70 -14 -41 -8 -83 -18 -165 -41 -49 -14 -97 -26 -105 -28 -8 -2
-28 -9 -45 -16 -16 -7 -32 -13 -35 -14 -30 -7 -123 -42 -152 -57 -21 -10 -38
-16 -38 -13 0 3 -11 -2 -24 -11 -14 -8 -29 -16 -33 -16 -27 -2 -308 -146 -413
-213 -52 -33 -184 -119 -195 -128 -213 -161 -252 -195 -400 -343 -60 -60 -129
-132 -152 -160 -23 -27 -50 -59 -60 -70 -10 -12 -29 -36 -43 -54 -43 -57 -79
-105 -87 -115 -11 -13 -101 -150 -129 -195 -43 -69 -92 -158 -99 -179 -3 -11
-11 -21 -16 -21 -5 0 -9 -5 -9 -12 0 -6 -22 -56 -49 -112 -26 -56 -52 -112
-56 -126 -4 -14 -16 -45 -27 -70 -11 -24 -21 -49 -23 -55 -1 -5 -5 -17 -8 -25
-33 -78 -119 -392 -136 -500 -6 -36 -13 -76 -16 -90 -3 -14 -8 -50 -11 -80 -3
-30 -7 -66 -9 -80 -8 -46 -18 -243 -18 -355 0 -159 18 -383 39 -490 2 -11 6
-31 8 -45 6 -35 20 -114 21 -120 0 -3 4 -14 8 -25 6 -19 16 -64 21 -95 9 -63
120 -381 178 -510 31 -69 113 -230 142 -280 15 -25 34 -60 43 -77 9 -18 20
-33 25 -33 4 0 8 -6 8 -13 0 -7 20 -42 45 -78 25 -35 51 -72 57 -82 32 -47
128 -173 153 -201 6 -6 25 -29 44 -51 69 -83 235 -248 347 -346 202 -176 519
-374 789 -494 61 -27 238 -95 258 -100 7 -1 20 -5 30 -8 9 -4 25 -10 35 -14 9
-3 22 -7 27 -9 174 -50 299 -79 413 -99 17 -3 47 -8 65 -11 119 -21 259 -29
482 -29 214 0 338 7 410 20 16 4 47 8 70 11 54 6 88 11 122 18 54 12 78 17
103 22 55 11 219 58 300 85 47 17 90 31 95 33 6 1 27 10 49 19 21 9 41 17 44
17 12 0 225 99 295 137 42 24 79 43 82 43 10 0 220 133 223 141 2 5 8 9 13 9
13 0 99 63 99 73 0 5 -15 28 -32 51 -18 22 -36 46 -41 51 -4 6 -26 35 -49 65
-24 30 -45 57 -48 60 -3 3 -9 13 -15 22 -8 13 -168 223 -207 273 -5 6 -36 47
-71 92 -34 44 -97 127 -140 183 -43 56 -88 117 -100 135 -12 19 -27 35 -33 35
-7 0 -36 -16 -65 -36 -100 -67 -307 -176 -362 -189 -15 -4 -27 -12 -27 -18 0
-6 -3 -8 -6 -4 -4 3 -23 -1 -43 -9 -46 -19 -197 -62 -248 -70 -21 -3 -41 -8
-44 -9 -3 -2 -28 -7 -55 -10 -27 -4 -56 -8 -64 -10 -8 -3 -51 -7 -94 -10 -44
-3 -83 -8 -88 -11 -4 -3 -8 -1 -8 5 0 7 -9 7 -22 3 -24 -9 -103 -7 -203 3 -33
3 -80 8 -105 9 -25 2 -56 6 -70 10 -14 3 -36 8 -50 10 -60 11 -170 39 -235 61
-125 43 -160 56 -170 65 -5 5 -12 8 -15 7 -11 -2 -149 68 -233 119 -218 133
-392 290 -571 514 -68 85 -197 310 -236 410 -12 30 -28 69 -35 85 -24 54 -75
228 -77 262 0 5 -4 18 -9 30 -4 12 -11 41 -13 65 -3 24 -8 54 -11 68 -16 81
-24 385 -11 465 3 22 8 61 10 87 3 26 12 82 21 125 22 105 23 108 25 108 1 0
3 11 6 25 2 14 7 32 11 40 3 8 7 17 8 20 9 35 32 99 66 185 7 17 12 33 11 38
-1 4 2 7 8 7 5 0 10 9 10 20 0 11 5 20 12 20 6 0 9 3 5 6 -7 7 49 111 112 209
57 89 153 214 213 279 26 28 48 54 48 59 0 4 7 7 15 7 8 0 15 4 15 9 0 7 87
87 171 156 69 57 279 190 279 177 0 -4 4 -2 8 4 6 9 64 38 167 85 90 41 327
110 420 124 23 3 52 8 65 10 70 15 423 28 444 17 5 -3 29 -6 55 -7 63 -4 120
-13 159 -24 18 -5 35 -10 37 -10 15 1 91 -14 100 -19 6 -4 15 -7 20 -8 31 -5
107 -29 184 -59 125 -47 351 -161 351 -177 0 -4 5 -8 12 -8 6 0 21 -8 32 -18
12 -10 33 -23 47 -29 25 -11 29 -8 85 65 32 43 62 79 66 80 4 2 8 8 8 13 0 5
24 40 52 77 61 78 59 75 99 127 16 22 35 47 42 55 7 8 26 33 42 55 16 22 48
63 70 91 22 28 49 64 60 79 11 16 26 34 33 41 6 7 12 15 12 19 0 3 13 20 30
38 16 18 30 36 30 40 0 4 9 18 21 30 43 47 109 141 106 151 -5 16 -261 187
-303 203 -11 3 -21 10 -24 13 -3 4 -79 43 -170 88 -174 84 -346 150 -520 200
-169 48 -171 48 -350 81 -99 17 -130 21 -290 37 -58 6 -388 12 -393 8z"/>
<path d="M96 11402 c-4 -3 -24 -5 -46 -4 -44 3 -44 3 -31 -30 5 -13 28 -84 51
-158 23 -74 44 -142 47 -150 3 -8 8 -24 10 -34 2 -11 8 -25 14 -33 6 -7 9 -13
5 -13 -3 0 1 -17 8 -37 8 -21 36 -105 61 -188 59 -189 74 -236 82 -255 3 -8 7
-21 9 -27 1 -7 12 -43 24 -80 12 -38 23 -72 25 -78 1 -5 5 -17 8 -25 3 -8 24
-76 47 -150 23 -74 49 -155 57 -180 23 -69 84 -264 87 -275 2 -5 5 -17 9 -25
3 -8 16 -51 30 -95 44 -142 138 -439 154 -485 8 -25 16 -49 17 -55 2 -10 70
-224 146 -460 21 -66 64 -201 95 -300 31 -99 65 -205 75 -235 17 -50 73 -228
76 -240 0 -3 3 -12 7 -20 3 -8 20 -62 37 -120 18 -58 36 -114 40 -125 4 -11
20 -60 35 -110 32 -103 55 -173 63 -195 3 -8 7 -22 8 -30 2 -8 12 -42 24 -75
11 -33 22 -67 24 -75 2 -8 8 -28 14 -43 7 -16 12 -31 12 -35 0 -4 17 -61 39
-127 21 -66 60 -187 85 -270 49 -154 59 -185 72 -220 4 -11 9 -29 11 -40 1
-11 7 -29 12 -40 5 -11 32 -92 60 -180 27 -88 60 -191 72 -230 12 -38 23 -72
23 -75 0 -3 16 -52 36 -110 l35 -105 518 0 c285 0 520 2 522 6 2 3 6 16 8 30
3 13 13 53 22 89 9 36 19 76 22 90 2 13 18 78 34 145 17 66 32 127 34 135 2 8
4 15 5 15 1 0 3 11 5 25 1 14 17 81 35 150 17 69 33 132 35 140 2 8 21 90 44
181 22 91 42 176 45 190 3 13 17 71 31 129 15 58 28 114 30 125 2 11 14 56 25
100 12 44 23 89 25 100 2 11 16 67 30 125 15 58 28 114 31 125 2 11 6 29 8 40
4 18 72 298 176 720 40 165 109 448 115 475 2 8 13 53 25 100 11 47 23 96 26
110 3 14 7 32 9 40 2 8 4 16 5 18 3 3 7 19 9 34 3 29 22 -30 46 -142 1 -8 8
-33 13 -55 6 -22 13 -51 16 -65 3 -14 17 -71 31 -128 14 -56 27 -110 29 -120
1 -9 6 -24 9 -32 5 -13 11 -39 32 -135 4 -18 28 -116 42 -170 2 -11 9 -38 14
-60 5 -22 12 -51 15 -65 3 -14 7 -29 8 -35 1 -5 5 -19 9 -30 3 -11 8 -31 11
-45 9 -45 57 -245 63 -260 3 -8 8 -23 9 -32 7 -36 64 -275 74 -308 5 -19 25
-100 44 -180 20 -80 49 -201 66 -270 17 -69 33 -134 35 -145 3 -11 14 -58 26
-105 11 -47 23 -96 25 -110 3 -14 11 -47 19 -75 13 -46 121 -484 130 -531 3
-11 22 -92 43 -180 l39 -159 43 -2 c23 -1 49 -4 56 -7 8 -3 14 -2 14 3 0 4 23
5 50 1 28 -4 53 -3 56 1 3 5 15 4 28 -1 12 -4 27 -5 33 -2 6 4 48 5 92 2 51
-3 81 -1 81 5 0 6 3 5 8 -1 4 -6 16 -8 26 -4 11 3 39 3 63 0 23 -4 43 -4 43 0
0 3 23 4 50 0 28 -4 53 -3 56 1 3 5 15 4 28 -1 12 -4 27 -5 33 -2 6 4 48 5 92
2 49 -3 83 -1 85 5 3 6 5 5 5 -2 1 -7 8 -10 17 -6 9 3 32 6 53 7 20 1 36 6 36
11 1 6 9 35 20 65 10 30 20 60 21 65 1 6 32 105 69 220 74 232 106 335 110
350 1 6 5 17 8 25 7 16 156 486 162 510 2 8 13 39 24 68 10 28 18 52 16 52 -2
0 3 16 11 35 8 19 11 35 8 35 -4 0 -2 6 4 13 6 6 11 17 12 22 5 23 8 33 29 96
13 37 24 73 25 80 1 8 28 93 59 190 31 96 57 178 57 182 0 3 5 18 12 34 13 33
11 26 27 83 7 25 21 70 31 100 18 56 118 373 146 465 9 28 18 57 21 65 4 8 7
17 8 20 1 3 4 12 7 20 6 14 51 158 100 320 11 36 23 72 26 80 3 8 6 17 7 20 0
3 14 46 30 95 16 50 30 95 31 100 2 10 32 104 147 460 33 105 62 195 63 200 1
6 21 69 44 140 73 228 102 319 110 351 4 18 11 38 16 45 5 8 9 20 11 28 1 8
22 78 47 155 42 134 98 308 242 766 36 113 68 212 71 220 18 45 15 50 -35 50
-26 0 -71 1 -100 2 -28 2 -54 -1 -56 -7 -3 -5 -5 -4 -5 2 -1 9 -8 10 -23 4
-13 -5 -32 -5 -43 -1 -11 4 -24 5 -29 2 -9 -5 -97 -4 -131 2 -11 2 -32 0 -46
-4 -15 -4 -32 -4 -39 0 -7 4 -25 4 -40 0 -15 -4 -33 -4 -40 0 -6 4 -27 4 -46
0 -19 -4 -36 -4 -39 0 -3 5 -18 5 -33 1 -15 -4 -36 -6 -47 -5 -27 4 -45 4
-139 5 -44 0 -83 2 -87 5 -4 2 -10 -2 -12 -8 -4 -10 -6 -10 -6 -1 -1 9 -8 10
-23 4 -13 -5 -32 -5 -43 -1 -11 4 -24 5 -29 2 -4 -2 -31 -4 -60 -3 l-51 1 -53
-178 c-62 -208 -56 -188 -81 -280 -11 -40 -24 -78 -28 -85 -4 -6 -8 -18 -9
-27 -3 -19 -16 -64 -44 -155 -29 -94 -50 -166 -55 -190 -3 -11 -9 -31 -14 -45
-10 -26 -50 -161 -56 -189 -2 -9 -10 -35 -19 -58 -8 -24 -13 -43 -10 -43 2 0
0 -9 -6 -21 -6 -11 -13 -28 -15 -37 -2 -9 -22 -78 -44 -152 -23 -74 -43 -142
-45 -150 -4 -14 -67 -225 -107 -360 -22 -71 -24 -78 -38 -130 -5 -19 -25 -89
-45 -155 -20 -66 -50 -165 -67 -220 -17 -55 -32 -104 -33 -110 -2 -5 -4 -13
-5 -17 -1 -4 -6 -20 -11 -35 -4 -16 -24 -82 -43 -148 -20 -66 -57 -190 -82
-275 -26 -85 -48 -159 -49 -165 -2 -5 -9 -30 -16 -55 -7 -25 -14 -49 -16 -55
-1 -5 -9 -30 -17 -55 -8 -25 -18 -58 -23 -75 -4 -16 -8 -32 -9 -35 -1 -3 -9
-32 -19 -65 -10 -33 -20 -67 -23 -75 -7 -17 -9 -26 -17 -55 -3 -11 -9 -33 -14
-50 l-9 -30 -13 45 c-8 25 -14 48 -16 53 -1 4 -2 8 -4 10 -1 1 -3 9 -5 17 -1
8 -13 53 -25 100 -12 47 -24 92 -25 100 -2 8 -4 15 -5 15 -1 0 -3 8 -6 18 -2
9 -6 25 -8 35 -3 9 -5 17 -6 17 -1 0 -3 7 -5 15 -1 8 -13 51 -24 95 -30 113
-31 113 -35 133 -2 9 -16 62 -31 117 -15 55 -30 109 -32 120 -3 11 -7 27 -10
35 -3 8 -7 22 -9 30 -1 8 -14 58 -29 110 -14 52 -27 103 -30 112 -2 9 -13 50
-24 90 -21 75 -44 165 -86 323 -13 50 -31 117 -40 150 -34 123 -90 337 -130
490 -1 6 -3 13 -4 17 -1 4 -7 22 -12 40 -12 40 -14 46 -34 123 -17 68 -17 68
-40 150 -9 33 -25 94 -36 135 -11 41 -29 109 -40 150 -11 41 -29 107 -39 145
-10 39 -23 85 -28 103 -6 18 -11 35 -11 37 -2 18 -15 66 -27 98 -8 20 -12 37
-9 37 2 0 0 11 -5 25 -5 14 -12 36 -15 48 -5 22 -32 128 -40 157 -2 8 -11 42
-20 75 -46 174 -43 169 -105 165 -8 0 -26 0 -40 1 -14 0 -38 0 -55 0 -16 -1
-39 -1 -50 0 -11 0 -27 0 -35 -1 -8 0 -28 0 -45 1 -16 1 -37 1 -45 0 -8 -1
-24 -1 -35 -1 -11 1 -26 1 -32 1 -91 -3 -122 -3 -130 2 -5 3 -15 2 -22 -3 -8
-4 -25 -4 -40 0 -14 4 -35 4 -46 0 -11 -4 -27 -4 -36 1 -8 4 -21 4 -29 -1 -7
-4 -23 -4 -36 0 -41 16 -50 0 -98 -185 -1 -5 -8 -28 -14 -50 -6 -22 -13 -51
-16 -65 -3 -14 -10 -41 -16 -60 -6 -19 -13 -42 -15 -50 -2 -8 -13 -51 -25 -95
-30 -111 -40 -147 -45 -167 -2 -10 -16 -62 -30 -115 -15 -54 -29 -105 -31
-113 -3 -14 -41 -152 -48 -175 -2 -5 -6 -23 -11 -40 -4 -16 -18 -68 -31 -115
-12 -47 -25 -96 -28 -110 -3 -14 -14 -55 -25 -92 -11 -38 -17 -68 -14 -68 3 0
0 -7 -7 -15 -7 -8 -10 -15 -7 -15 4 0 0 -18 -8 -40 -8 -22 -15 -44 -16 -48 -1
-4 -3 -11 -5 -17 -3 -8 -23 -88 -40 -155 -2 -8 -8 -33 -14 -55 -6 -22 -12 -47
-14 -55 -2 -8 -9 -33 -15 -55 -6 -22 -11 -44 -12 -50 -1 -5 -5 -20 -10 -33 -5
-12 -11 -33 -13 -45 -3 -12 -12 -47 -21 -77 -9 -30 -18 -64 -20 -75 -3 -18
-26 -101 -70 -260 -9 -33 -19 -69 -21 -80 -11 -45 -13 -50 -14 -50 -1 0 -3 -7
-5 -15 -3 -13 -18 -75 -30 -120 -2 -8 -4 -15 -5 -15 -1 0 -3 -7 -5 -16 -1 -9
-31 -119 -65 -245 -34 -126 -63 -233 -64 -239 -1 -5 -5 -16 -9 -22 -5 -7 -6
-13 -4 -13 3 0 -6 -39 -19 -87 -14 -49 -28 -97 -31 -108 -3 -11 -6 -28 -6 -37
-1 -10 -4 -18 -7 -18 -3 0 -7 -8 -8 -17 -1 -10 -10 -49 -20 -87 -14 -51 -21
-64 -26 -50 -7 16 -53 170 -60 199 -2 6 -6 17 -9 25 -5 13 -185 619 -191 645
-2 6 -11 37 -21 70 -11 33 -20 62 -20 65 -1 3 -5 19 -9 35 -4 17 -13 44 -19
60 -6 17 -12 35 -13 41 -1 6 -10 38 -20 70 -10 33 -18 61 -19 64 -16 58 -29
100 -46 152 -12 35 -22 70 -23 78 -3 20 -44 157 -60 200 -8 19 -14 38 -15 43
-1 4 -1 8 -2 10 0 1 -2 10 -4 19 -2 10 -12 46 -23 80 -10 35 -28 95 -40 133
-11 39 -31 104 -43 145 -12 41 -24 80 -25 85 -2 6 -12 39 -22 75 -10 36 -21
72 -25 80 -3 8 -21 69 -40 135 -67 231 -167 564 -177 589 -5 14 -7 26 -4 26 2
0 0 8 -5 18 -6 11 -12 30 -15 43 -3 13 -17 62 -31 109 -15 47 -28 92 -30 100
-3 8 -16 53 -31 100 -14 47 -34 114 -44 150 -26 95 -39 125 -50 114 -5 -5 -45
-7 -89 -4 -51 3 -81 1 -81 -5 0 -6 -3 -5 -8 1 -4 6 -16 8 -26 4 -11 -3 -39 -3
-63 0 -23 4 -43 4 -43 0 0 -3 -23 -4 -50 0 -28 4 -53 3 -56 -1 -3 -5 -15 -4
-28 1 -13 5 -26 6 -30 3 -3 -3 -36 -5 -73 -4 -37 1 -75 2 -83 2 -80 -2 -165 1
-172 5 -4 3 -8 -1 -8 -8 0 -9 -3 -10 -8 -2 -4 6 -16 8 -26 4 -11 -3 -39 -3
-63 0 -23 4 -43 4 -43 0 0 -3 -23 -4 -50 0 -28 4 -53 3 -56 -1 -3 -5 -15 -4
-28 1 -13 5 -27 6 -30 2z"/>
</g>
</svg>
